<?xml version="1.0" encoding="utf-8"?>
<!-- Generator: Adobe Illustrator 27.3.1, SVG Export Plug-In . SVG Version: 6.00 Build 0)  -->
<svg version="1.1" id="Layer_1" xmlns="http://www.w3.org/2000/svg" xmlns:xlink="http://www.w3.org/1999/xlink" x="0px" y="0px"
	 viewBox="100 250 1920 500" style="enable-background:new 0 0 1920 1080;" xml:space="preserve">
<style type="text/css">
	.st1{fill:hsl(38, 53%, 60%);}
	.st2{fill:#f4f2ea;}
</style>
<g>
	<g>
		<path class="st1" d="M682.2,506.2c7.1,1.1,14.7,0,22.4,0c0.5,0,1.5-0.9,1.7,0.4c0.2,1-0.5,1.5-1.3,1.9c-0.3,0.2-0.8,0.2-1.1,0.2
			c-5.2,1-5.7,1.4-6,6.6c-0.2,4-1.5,7.9-1.2,11.9c0.3,4.5,0.9,8.9,1.6,13.3c0.9,5.3,0.4,5.9-4.7,7c-3.9,0.8-7.7,2.3-11.6,2.5
			c-11.8,0.6-23.7,1.6-35.6,0.5c-7.7-0.6-14.8-3.6-21.8-6.6c-2-0.9-3.9-2.6-5.6-4.2c-1.8-1.7-3.7-3.3-6.2-4.2
			c-1.4-0.4-1.6-1.9-2.4-3c-3.4-4.4-7.5-8.4-9.8-13.7c-1.8-4.3-3.9-8.7-4.5-13.4c-1.5-11.7-1.5-23.3,3.2-34.6
			c3.3-8.2,9.3-14,15.9-19.3c7.7-6.1,16.6-10.4,26.3-12.3c7.7-1.5,15.5-2.8,23.7-2.3c8,0.5,15.6,1.8,23.2,3.8c5.1,1.3,6.6,3.2,7,8.4
			c0.4,5.9,1.1,11.7,1.5,17.5c0.1,0.9,0.6,2.2-0.6,2.4c-1.4,0.3-1.7-1-1.9-1.9c-1.7-7.6-6.7-13.4-12-18.6c-4.9-4.7-11.2-8-18.7-7.7
			c-2.2,0.1-4.4-0.9-6.8-0.9c-12.8-0.2-23.7,4.4-32.6,13.3c-4.2,4.1-7.3,9-9.8,14.6c-5.5,12.5-5.2,25.4-3,38.3
			c0.9,5.5,3.3,10.9,6.2,15.8c11.1,18.7,27.3,27.6,49.1,26.5c1.8-0.1,3.8-0.4,5.5-0.9c7.3-1.6,11-6.6,12-13.4
			c0.9-6.3,1.3-12.8-0.3-19.2c-0.8-2.9-2.3-4.5-5.3-5.4c-4-1.1-8.2-0.5-12.2-1.5c-0.6-0.1-1.7,0.3-1.7-0.9c-0.1-1.3,0.9-1.5,1.9-1.5
			c3.4,0,7,0.1,10.4,0.1C678.7,506.3,680.2,506.2,682.2,506.2z"/>
		<path class="st1" d="M877.4,457.8c0,10.9,0,21.7,0,32.6c0,0.8-0.4,1.8,0.5,2.3c1,0.3,1.4-0.6,2-1.2c6-5.6,12.9-10.1,21.1-11.8
			c13.6-2.8,25,3.6,30.2,16.5c4.1,10.2,3.8,20.7,0.2,31c-1.4,4.2-4.2,7.9-6.9,11.5c-9.4,12.5-22.2,13.9-36.1,12.4
			c-4.7-0.5-9.1-2-13.1-4.5c-3-1.9-5.7-1.5-8.6,0.1c-2.5,1.4-5.3,2.5-7.9,3.8c-0.8,0.3-1.8,0.6-2.4,0c-0.6-0.8,0.3-1.5,0.9-2.2
			c0.3-0.4,0.8-0.9,1.2-1.2c6.3-4.1,7.7-10.3,7.7-17.3c0-28.4,0-56.7,0-85.1c0-2.4-0.2-4.8-0.6-7.1c-0.8-4.1-2.7-5.4-6.8-4.6
			c-1.8,0.3-3.7,1-5.4,1.4c-0.5,0.1-1.4,0.2-1.7-0.5c-0.2-0.6,0.3-1.1,0.8-1.4c1.5-1,3-1.8,4.6-2.6c4.6-2.3,9.4-4.3,14.1-6.5
			c1.1-0.5,2.2-0.6,3.2-0.8c2.5-0.2,3.3,0.4,3.3,3.1C877.3,436.3,877.4,447.1,877.4,457.8z M877.4,511.4c0,3.4-0.1,6.9,0,10.4
			c0.1,3.4-0.2,7.1,1,10.2c4.3,11.6,12.7,16.9,24.7,16.4c4-0.2,7.6-2,10.3-5.2c6.6-7.5,7.7-16.7,7.6-26.1
			c-0.1-5.4-0.8-10.5-2.4-15.8c-2.6-8.7-10.7-15.6-19.8-15.2c-8.4,0.4-15.2,4.4-20.7,10.7c-0.9,1-0.8,2-0.8,3.1
			C877.4,503.7,877.4,507.5,877.4,511.4z"/>
		<path class="st1" d="M1151.1,501.4c0.8-1,1.8-0.9,2.8-0.9c4.2,0.3,8.3-0.3,12.3-1.1c7.3-1.4,14.3-9.3,16.6-17.2
			c1.1-3.9,1.8-7.6,1.7-11.5c-0.2-8.3-1.5-16.2-8.1-22.3c-7.3-6.7-16-8.3-25.4-6.5c-3.7,0.6-5.8,4.5-5.8,10.1c-0.1,7,0,14.1,0,21.1
			c0,8.5,0,17.1,0,25.6c0,13.6,0.1,27,0.1,40.6c0,2.2,1.3,3.3,3,4.7c4.4,3.8,9.8,2.5,14.6,3.2c1,0.2,2.7-0.5,2.6,1.2
			c-0.1,1.4-1.5,1.3-2.7,1.3c-10-0.1-20.1-0.3-30.1-0.3c-4.3,0-8.6,0.2-12.9,0.3c-1,0-2.5,0.3-2.7-0.9c-0.2-1.5,1.6-1.3,2.5-1.6
			c0.8-0.2,1.6-0.2,2.5-0.2c6.9-0.5,8.5-2,9.6-8.8c0.5-3.2,0.5-6.6,0.5-9.8c0-22.8,0-45.7,0-68.5c0-4.2-0.2-8.4-1-12.6
			c-0.6-3.8-2-4.8-5.8-5.5c-2.3-0.3-4.4-0.8-6.7-0.8c-0.8,0-1.7-0.2-1.7-1.1s1-1.2,1.6-1.3c2.5-0.1,5.1-0.2,7.6,0
			c7.6,0.6,15.4,0.5,23.1,0.2c6.1-0.2,12.4-0.8,18.5-0.4c8.4,0.4,16.4,2.3,23.1,8.1c5.6,4.8,8.1,10.8,8.3,17.9c0.1,6,0,12-2.8,17.5
			c-6.3,12.5-16.6,19.5-30.7,20.5c-4.4,0.3-8.8,0.4-13.1-0.5C1152,502.1,1151.5,502.3,1151.1,501.4z"/>
		<path class="st1" d="M805.2,551.5c-22.5,0.5-36.3-16.6-35.8-37.2c0.3-21,16-34.1,37.9-34.9c19.8-0.8,36.1,14.6,34.2,40.6
			C840.1,535.3,826.6,552.2,805.2,551.5z M827.9,519.3c0.2-4.6-0.5-10.1-2.4-15.4c-4-11.1-10.4-19.3-23-21c-6-0.9-14.6,4-16.7,9.4
			c-4.1,11-4,21.9-0.9,33c2.5,8.8,6.9,16.1,15.1,20.9c8.6,4.9,21.3,1,25-8.2C827.3,532.1,827.8,526.1,827.9,519.3z"/>
		<path class="st1" d="M744.3,479.8c0,17.3,0,34.6,0,52c0,3.2,0.3,6.3,1.1,9.5c0.9,4.2,1.9,4.9,6.1,5.8c1.4,0.3,4.2-0.5,3.8,2
			c-0.3,2-2.8,0.8-4.2,0.8c-8.5-0.5-16.9-0.3-25.4,0c-0.9,0-1.7,0.1-2.5,0.1s-1.6,0.1-1.7-1c0-0.9,0.5-1.4,1.3-1.6
			c0.9-0.2,1.8-0.3,2.8-0.4c4-0.4,5.8-2.2,6.3-6.1c0.6-4.9,0.6-9.9,0.6-14.8c0-26.5-0.1-52.8,0-79.2c0-3.1-0.3-6.2-0.8-9.3
			c-0.6-4.6-2.8-5.7-7.3-4.1c-1.5,0.5-3.2,0.6-4.8,0.9c-0.5,0.1-1.3,0.1-1.5-0.5c-0.2-0.6,0.2-1.1,0.6-1.4c0.5-0.5,1.2-0.9,1.8-1.2
			c5.8-2.7,11.5-5.4,17.3-8.1c1.7-0.9,3.6-0.5,5.3-0.4c1.6,0.1,1,1.6,1,2.5c0,11.1,0,22.1,0,33.1
			C744.3,465.4,744.3,472.6,744.3,479.8z"/>
		<path class="st1" d="M1309.3,479.2c0,18.1,0,36.1,0,54.2c0,2.5,0.2,4.9,0.5,7.3c0.3,3.1,1.9,5.3,5.2,5.8c0.4,0.1,1,0.1,1.4,0.3
			c1.3,0.8,4,0.1,3.8,1.9c-0.1,1.1-3,1.5-4.6,1.2c-5.4-0.9-10.9-0.3-16.2-0.4c-3.6,0-7.1,0.3-10.7,0.4c-0.9,0-2.2,0.2-2.3-1.1
			c-0.1-1.1,1-1.4,1.8-1.8c0.2-0.1,0.3-0.1,0.5-0.1c6.7-1.3,7.6-2,8.3-8.7c0.5-5.9,0.5-11.9,0.5-18c0.1-17.2,0.3-34.4-0.1-51.6
			c-0.2-7.5,0.5-15.1,0-22.6c-0.2-3-0.3-6.1-0.6-9.1c-0.3-3.1-1.8-4.4-5.1-4.3c-2.2,0.1-4.3,0.3-6.1,1.6c-0.5,0.3-1.6,1.2-2.2,0
			c-0.4-0.9-0.2-1.8,0.9-2.4c6.9-3.2,13.8-6.7,20.8-9.7c3-1.3,4.3-0.2,4.3,3.2C1309.3,443.2,1309.3,461.3,1309.3,479.2z"/>
		<path class="st1" d="M1048.4,480.4c0,16.8,0,33.5,0,50.4c0,3,0,5.9,0.3,8.9c0.6,5.1,2.8,7.3,7.9,7.7c0.5,0,1.1,0,1.7,0
			c0.6,0.1,1.4,0.2,1.4,1.1c0,0.8-0.8,0.9-1.4,1.1c-2.7,0.9-5.3,0-8,0c-7.2,0-14.4,0-21.7-0.1c-0.9,0-2.4,0.8-2.5-0.9
			c-0.1-1.5,1.4-1.5,2.5-1.6c3.3-0.2,5.9-1.4,7-4.8c0.4-1.4,0.5-2.9,0.6-4.4c1-12.4,0.5-24.7,0.2-37c-0.1-3.3,0.5-6.6,0.4-9.9
			c-0.1-16.1,0.2-32.3-0.5-48.3c-0.1-2.2-0.5-4.3-0.9-6.3c-0.6-3.1-2.3-4.2-5.5-3.6c-2,0.4-4,1.1-6,1.5c-0.6,0.1-1.4,0.4-1.7-0.2
			c-0.3-0.6,0.5-0.9,0.8-1.4c1.1-2.4,3.6-2.2,5.4-3c4.8-2.4,9.7-5.1,14.8-6.7c4.4-1.4,5.3-0.9,5.3,3.7
			C1048.4,444.5,1048.3,462.4,1048.4,480.4C1048.3,480.4,1048.3,480.4,1048.4,480.4z"/>
		<path class="st1" d="M1001.2,514.8c0,5.4,0,10.7,0,16c0,0.8,0,1.5,0.1,2.3c1.1,9.3,4.1,9.3,11.4,8.2c1.1-0.1,2.2-0.6,3.2-0.9
			c0.4-0.1,1-0.1,1.2,0.4s0,1-0.3,1.3c-0.8,0.4-1.4,0.9-2.2,1.3c-4.8,2.7-10.1,4.7-15.3,6.8c-3.7,1.4-6.7-0.1-7.4-4.2
			c-0.2-1.6-1.1-3-1.3-4.7c-0.1-1-0.4-1.6-1.8-0.6c-3.7,2.5-7.5,4.6-11.2,7c-5.7,3.7-11.7,3.9-18.1,1.7c-7.5-2.5-9.1-12.5-4.3-18
			c4.3-4.8,10-7.1,15.8-9.4c5.7-2.3,11.3-4.4,16.9-6.8c1.1-0.4,1.8-1,1.8-2.3c0-7.2,0.6-14.4-1.3-21.5c-0.1-0.3-0.2-0.8-0.3-1.1
			c-1.3-3.1-2.7-6.2-6.8-6.7c-4.8-0.5-8.9,0.5-11.6,4.9c-1.9,3.2-2.4,7.1-3.8,10.5c-1.1,2.8-4,4.8-7,4.7c-4.6,0-6.2-2.6-5.4-7.4
			c0.4-2.7,2.4-4.6,4.5-6.2c7.9-5.8,16.5-9.9,26.5-10.9c7.7-0.8,15.6,4.8,16,13.1c0.2,3.8,0.3,7.4,0.4,11.2c0.1,3.7,0,7.3,0,11
			C1001,514.8,1001.1,514.8,1001.2,514.8z M989.6,522.8c0-0.4,0-1,0-1.4c0-3.2-0.1-3.3-3-2.3c-5.9,2-11.8,4.1-17.1,7.5
			c-4.2,2.7-5.3,8.1-2.7,12.7c1.7,3.1,9.1,6.1,12.7,3.7c1.8-1.3,3.9-2.2,5.9-3c3.1-1.3,4.7-3.4,4.6-7.1
			C989.9,529.4,989.7,526.1,989.6,522.8z"/>
		<path class="st1" d="M1386.1,514.9c-0.2,6.7,0.3,13.3,0.5,19.9c0.1,4.4,5.3,8,9.5,6.7c1-0.3,1.9-0.6,3-0.9
			c0.9-0.2,1.9-0.6,2.5,0.5c0.5,1.2-0.4,1.6-1.4,2c-1.8,0.9-3.7,1.7-5.5,2.6c-3.6,1.6-7,3.2-10.5,4.7c-2.3,1-4.3,0.4-5.5-1.7
			c-1.1-1.8-2.2-3.7-2.4-5.9c-0.2-2.6-1.3-3-3.4-1.4c-4.4,3.2-8.9,6.3-14,8.2c-5.9,2.2-11.8,1.7-17.1-2.2c-6-4.4-5.6-13.3,1-18.3
			c4.7-3.6,10-6.1,15.7-8c5.3-1.6,10.3-4,15.4-6c1.1-0.4,1.4-1.4,1.4-2.5c-0.2-4.8,0.4-9.8-0.4-14.5c-0.5-2.9-1.1-5.9-2-8.8
			c-1.9-6.2-11.9-7.9-16.4-2.7c-1.7,2-3.1,4.4-3.9,7.1c-0.5,1.8-1,3.7-1.6,5.4c-1.5,4.2-5.2,6-9.4,4.5c-2.4-0.8-3.8-4.5-2.8-7.4
			c0.6-1.7,1.7-3.1,3.1-4.3c8.1-7.2,17.1-12,28.2-12c2.3,0,4.5,0.3,6.7,1c5.2,1.7,7.7,5.6,8.6,10.8
			C1386.6,499.5,1385.8,507.2,1386.1,514.9z M1375.2,527.4L1375.2,527.4c0-2.6-0.1-5.3,0-7.9c0-1.4-0.3-1.6-1.8-1.3
			c-5.7,1.4-10.8,4.4-16.1,6.5c-1.7,0.6-3.3,1.8-4.5,3.6c-2.6,3.8-2.5,8.1,0.2,11.7c2.6,3.6,6.3,4.8,11.2,3.1
			c3.8-1.3,7.4-3.4,10.3-6.1c2-1.8,0.3-5.2,0.9-7.9C1375.3,528.6,1375.2,528.1,1375.2,527.4z"/>
		<path class="st1" d="M1261.9,514c0,6.8,0,13.7,0.5,20.4c0.5,6.3,4.3,8.9,10.3,6.8c1.2-0.4,2.4-0.6,3.6-1c0.6-0.2,1.4-0.2,1.7,0.5
			c0.4,0.8-0.3,1.2-0.8,1.5c-0.6,0.5-1.4,1.2-2.2,1.3c-4.4,0.9-7.7,4.3-12.3,4.8c-0.1,0-0.2,0-0.2,0c-1.4,1.7-3,2.7-5.3,2.2
			c-2.2-0.5-2.9-2.6-4.1-4c-1.3-1.4-1.5-3.3-1.8-5.1c-0.3-2.4-1.1-1.7-2.5-0.8c-4.1,2.9-8.2,6.1-12.8,8.2
			c-5.5,2.4-11.1,2.8-16.5-0.3c-5.3-3.1-7.7-7.4-6-13.1c1-3.1,3.2-6.1,6.7-8.1c8.9-4.8,18.4-8.5,28.1-11.8c2-0.8,2.8-1.7,2.7-3.9
			c-0.3-6.8,0.2-13.7-1.6-20.3c-1.5-5.4-4-7.6-9.1-8.1c-3.7-0.3-8.5,2.6-10.5,6.3c-1.3,2.3-2,4.7-2.6,7.3c-0.6,2.4-2.2,4.1-3.7,5.9
			c-1.3,1.6-5.3,1.4-7.6-0.2c-1.5-1-2.2-4.5-1.2-6.2c3.2-6.3,9-9.9,15.3-12.7c4.8-2.2,10-3.7,15.4-3.8c6.2-0.1,11.8,1.6,15.2,7.3
			c0.9,1.5,0.6,3.7,0.9,5.5C1262.2,499.8,1261.8,507,1261.9,514z M1250.7,517.1c-1.9,1-3.3,1.9-4.9,2.6c-4.6,1.8-9.3,3.4-13.7,5.7
			c-2.9,1.5-4.6,3.8-5.4,6.9c-1.4,6,4.4,12.5,10.1,11.5c4.8-0.9,8.9-3.4,12.8-6.5c1.3-1,2.3-2.4,1.7-4c-0.6-1.9-0.5-3.8-0.3-5.7
			C1251.2,524.3,1251,521,1250.7,517.1z"/>
		<path class="st1" d="M1507.2,504.9c-6.3,0-12.8,0.1-19.2,0c-2.6-0.1-3.8,0.8-3.3,3.3c1,6.6,0.9,13.2,3.2,19.5
			c1.5,3.9,4.3,6.8,6.8,10c4.6,5.9,10.9,6.5,17.6,6.8c5.9,0.3,11-1.2,15.8-4.3c1-0.6,2.4-1.6,3.1-0.3c0.9,1.3-0.6,2.2-1.6,2.9
			c-8,6.6-16.8,9.6-27.3,8.2c-3.8-0.5-7.4-0.9-11-2.3c-5.8-2.3-9.8-6.7-13.6-11.4c-3.3-4.3-4.1-9.4-5.1-14.5
			c-1-5.9-0.8-12.2,1.1-17.5c2.2-6.6,6.3-12.4,12-16.9c8.9-7,19-9.1,29.9-7.7c8.9,1.1,14.2,7.3,15,16.4c0.1,1,0.1,2,0.1,3.1
			c0.2,4.3-0.2,4.8-4.6,4.8C1520,504.9,1513.5,504.9,1507.2,504.9L1507.2,504.9z M1485.7,502.3c1.8,0,3.4,0,5.2,0
			c8.2-0.1,16.4-0.3,24.4-0.5c2.3,0,3.1-0.8,2.5-3c-0.4-1.7-0.5-3.6-1-5.3c-1.1-4.4-4-7.5-8.1-9c-6.3-2.3-15.5,0.3-18.9,7.5
			C1488.1,495.3,1487.4,498.9,1485.7,502.3z"/>
		<path class="st1" d="M1431.7,512.4c0,7.2-0.5,14.4,0.1,21.6c0.5,5.5,3.9,9.6,10.7,10.4c4.9,0.6,9.7,0,14.1-2.6
			c1.3-0.8,3.1-2.3,4.2-0.6c0.8,1.1-1.5,1.9-2.6,2.8c-6.2,5.2-13.3,8.2-21.6,7.9c-4.3-0.2-8.4-1.3-11.7-3.9
			c-2.3-1.7-3.2-4.6-3.9-7.4c-0.8-4.1-0.9-8.2-0.2-12.3c0.2-1.7-0.4-3.2-0.4-4.8c0-9.9-0.2-19.8-0.3-29.8c-0.1-4.6-1.8-6.7-6.3-7.4
			c-0.5-0.1-1.1-0.1-1.6-0.2c-0.6-0.1-1.4-0.1-1.4-1.1c0-0.8,0.5-1.3,1.2-1.4c1.1-0.2,2.3-0.2,3.3-0.4c6.6-1.2,11.1-4.9,13.2-11.2
			c0.4-1.2,0.6-2.5,2.4-2.2c1.7,0.3,1.3,1.6,1.3,2.7c0,2.7,0.1,5.4-0.1,8.2c-0.1,2,0.5,2.9,2.7,2.8c5.8-0.5,11.6-0.9,17.4-1.3
			c0.2,0,0.5,0,0.9,0c4.4-0.2,5.8,1.8,4.3,6c-0.5,1.5-1.6,2.4-3.2,1.9c-5.9-1.5-12-1.5-18.2-2c-3.7-0.3-3.9-0.2-3.9,3.6
			C1431.5,498.4,1431.5,505.4,1431.7,512.4C1431.5,512.4,1431.7,512.4,1431.7,512.4z"/>
		<path class="st2" d="M842.9,594.6c4.5-0.2,9,0,13.6,0.5c3.2,0.3,6.2,1.3,8.8,3.3c4.3,3.4,4.1,8.3,3.3,12.9
			c-0.9,4.7-3.6,8.2-8.4,9.6c-0.8,0.2-1.6,0.5-2.4,0.9c-0.6,0.3-1,0.9-0.1,1.5c3.6,3.1,5.4,7.3,8.1,11.1c2,2.9,4,5.9,7.7,7
			c0.6,0.2,1.5,0.6,1.4,1.5c0,1-0.6,1.4-1.5,1.7c-4.2,1.7-9.1,0.6-11.9-3.3c-3.2-4.4-6.1-8.9-9.3-13.4c-0.8-1.1-1.4-2.3-2.3-3.2
			c-1.1-1.3-2.8-1.7-4.4-1.4c-1.6,0.4-1.2,2.2-1.2,3.3c-0.1,4.2,0,8.4,0,12.7c0,1.8,0.6,2.5,2.6,2c1.2-0.3,2.9-0.9,3.1,1.1
			c0.1,1.5-1.2,2-2.8,2.2c-4.3,0.1-8.6,0.2-12.9,0.4c-1.1,0-2-0.1-2.4-1.4c-0.3-1.4,0.2-2.2,1.4-2.6c1.9-0.6,2.7-2.2,2.8-4.1
			c0.9-12.4,0.2-25,0.6-37.3c0-1.1-0.2-1.8-1.5-1.7c-0.3,0-0.8,0-1.1-0.1c-1-0.2-2.2-0.3-1.9-1.8c0.1-1.3,1.2-1.3,2.2-1.3
			C837.1,594.6,840,594.6,842.9,594.6z M844.6,610.2h-0.1c0,0.9,0,1.7,0,2.5c0.1,7.9,0.3,7.9,8.1,6c6.7-1.5,8.5-6.8,8.3-12.5
			c-0.2-4.8-3.9-7.6-10-8.4c-4.3-0.5-5.9,0.6-6.2,5.1C844.4,605.3,844.6,607.8,844.6,610.2z"/>
		<path class="st2" d="M1201.3,612.3c3.1-3,6.7-4.1,10.1-4.6c7-1.1,11.6,2.6,12.7,11.2c0.8,6.7,0.9,13.4,0.6,20.1
			c-0.1,1.6,0.2,2.4,2.2,2.2c1.5-0.2,2.5,0.3,2.5,2.2c0,1.8-1.1,1.8-2.5,1.8c-3.9,0-7.6,0-11.5-0.1c-1,0-2.2,0.1-2.6-1.2
			c-0.4-1.3,0.5-1.8,1.4-2.4c2.2-1.1,3-2.9,3-5.3c-0.1-5.2-0.1-10.3-0.3-15.4c-0.1-3.4-1.2-6.6-4.8-7.7c-3.8-1.3-6.8,0.5-9.5,2.9
			c-0.9,0.8-1.2,1.8-1.2,3c-0.1,7-0.1,14.1-0.1,21.1c0,1.1,0.2,1.7,1.6,1.4c0.5-0.1,1.3,0.3,1.8,0.3c0.9,0.1,1.5,0.4,1.5,1.4
			c0,0.9-0.6,1.4-1.4,1.5c-4.7,0.2-9.4,0.3-14.1,0.5c-1,0-1.4-0.9-1.7-1.6c-0.3-0.9,0.4-1.5,1.1-1.6c3.1-0.9,3.2-3.2,3.3-5.9
			c0.3-6.8,0-13.7,0.6-20.4c0.1-1.2-0.3-1.7-1.5-1.7c-0.6,0-1.3,0-1.9-0.2c-1-0.2-1.8-0.6-1.8-1.8c0-1.1,1-1.4,1.7-1.5
			c2.9-0.3,5.7-1.1,8.4-2.4c1.5-0.6,2.2,0.1,2.3,1.5C1201.1,610.1,1201.2,610.9,1201.3,612.3z"/>
		<path class="st2" d="M1064.6,620.9c0.2,4.7-0.5,10.1,1.1,15.3c1.5,4.6,4,5.9,8.5,4.1c4.3-1.7,5.9-4.2,5.9-8.8
			c0-5.3,0-10.5,0.2-15.7c0.1-1.8-0.5-2.6-2.4-2.4c-0.5,0.1-1.1,0-1.7,0c-1.3,0-1.4-1.1-1.5-2c-0.2-1,0.6-1.3,1.4-1.4
			c3.3-0.8,6.7-1.2,9.9-2.3c2-0.8,1.6,1.1,1.8,2.2c1,7.2-1.1,14.3-0.5,21.5c0.2,2.4,0.1,4.8,0.1,7.3c0,1.7,0.5,2.6,2.5,2.4
			c1.3-0.2,2.8,0,2.7,1.6c0,1.5-1.5,1.7-2.8,1.8c-2.2,0-4.3,0-6.5,0.1c-1.5,0-2.8-0.1-3.2-1.9c-0.3-1.3-1.1-1.3-2-0.3
			c-4.5,4.4-10,2.9-15.2,2.3c-2-0.2-3.1-2.2-4-4c-1.6-3.6-2-7.2-2.2-11c-0.1-4.5-0.1-9,0-13.4c0.1-2-0.4-2.9-2.5-2.5
			c-1.5,0.2-2.6-0.1-2.8-1.8c-0.2-1.7,1.3-1.6,2.3-1.8c2.6-0.4,5.2-1,7.6-1.9c2.4-1,3.1-0.2,3.1,2.4
			C1064.6,613.8,1064.6,617,1064.6,620.9z"/>
		<path class="st2" d="M1144,614.7c1.9,0,2.9-1.1,3.7-2.6c0.5-1.1,1.8-1.6,2.9-2.2c5.2-2.2,10.3-3.2,15.8-1c3.7,1.5,5.8,4.6,5.9,8.6
			c0.1,7,0.3,14.1,0,21.1c-0.1,1.8,0.2,2.9,2.4,2.5c1.3-0.2,2.8-0.1,2.6,1.8c-0.1,1.6-1.1,2-2.7,1.9c-2.2-0.2-4.3-0.2-6.5-0.1
			c-2.3,0.1-3.4-0.6-3.2-3.1c-0.5,0.1-1,0.1-1.1,0.3c-3.9,3.7-8.6,3.3-13.2,3c-4.3-0.2-7.5-5.4-6.2-9.5c2-6.8,7.5-9.1,13.6-10.7
			c1.3-0.3,2.6-0.8,3.9-0.6c3,0.3,3.7-1.1,3.2-3.7c-0.1-1-0.3-2-0.3-3c0.1-5.3-3-6.6-8.2-6.3c-2.5,0.1-4,1.9-3.7,4.3
			c0.3,2.3-0.5,3.8-2.4,4.5c-2.2,0.8-3.6-0.5-4.5-2.4C1145.3,616.8,1144.7,616,1144,614.7z M1164.8,632.4c0-1,0-2,0-3.1
			c0-0.8-0.2-1.6-1.3-1.5c-3.9,0.5-7.5,1.4-10.4,4.3c-1.5,1.5-1.7,3.4-0.8,5.4c0.9,1.9,2.2,3,4.5,3
			C1162.3,640.5,1164.8,637.9,1164.8,632.4z"/>
		<path class="st2" d="M1036.9,629.3c0,3.2,0.1,6.6,0,9.8c0,1.7,0.4,2.4,2.3,2.2c1.1-0.2,2.7-0.4,2.7,1.4c0,1.6-1.1,2.2-2.6,2.2
			c-2-0.1-4.1,0-6.1,0c-1.5,0-2.8,0-3.2-1.9c-0.3-1.5-1.3-1.1-2-0.4c-3.7,3.3-8.2,2.9-12.6,2.6c-4.8-0.2-8.1-5.4-6.5-10
			c2.3-6.6,7.6-8.8,13.7-10.3c0.4-0.1,1.1,0.1,1.4-0.1c1.6-1.1,4.4,0.6,5.1-1.2c0.8-1.8,0.3-4.4,0-6.5c-0.3-1.8-0.1-4.2-2.8-5.1
			c-3.1-1-6-1.1-8.7,1.1c-1.1,0.9-0.9,1.7-0.2,2.7c0.8,1.1,0.4,2-0.4,2.7c-1.3,1-2.6,2-4.3,1.2c-1.1-0.5-2.3-1.1-2.2-2.7
			c0.1-1.7,0.8-3.2,1.9-4.5c3.7-4.2,12.9-6,18.1-3.7c4.6,2.2,6.2,5.9,6.6,10.7C1037,622.6,1036.9,626,1036.9,629.3L1036.9,629.3z
			 M1021.8,640.6c3.8,0,7.1-2.2,7.4-4.7c0.2-1.9,0.3-3.9,0.4-5.8c0-1,0.1-2.2-1.3-2c-4,0.3-7.9,1-10.5,4.3c-1.4,1.7-1.5,3.9-0.6,5.8
			C1018,640.1,1019.7,640.7,1021.8,640.6z"/>
		<path class="st2" d="M905.3,624.5c-3.3,0-6.8,0-10.1,0c-1.5,0-2.2,0.3-2.2,2c0.1,4.4,1.3,8.3,4.1,11.7c2,2.6,4.9,3.4,8.1,2.8
			c3.2-0.6,6.7-1.1,9-4c0.8-0.9,2-1.4,3-0.3c0.9,1-0.2,1.6-0.8,2.4c-3.2,4-7.5,5.6-12.7,6.1c-4,0.4-7.5-0.2-11-1.9
			c-4.3-2.2-6.7-5.7-7.9-10.1c-1.6-6-0.6-11.8,2.3-17.3c4.9-9.6,21.4-10.7,27-3.2c2.4,3.1,2.9,6.7,3.4,10.2c0.2,1.4-0.9,1.4-1.8,1.4
			c-3.4,0-7,0-10.4,0C905.3,624.4,905.3,624.5,905.3,624.5z M901.4,621L901.4,621c2.2,0,4.3,0,6.5,0c0.8,0,1.4,0,1.6-1
			c0.5-2.5-1.9-7.2-4.2-8c-5.6-1.8-11,1.5-11.9,7.2c-0.2,1.3,0.1,1.7,1.4,1.7C897,621,899.2,621,901.4,621z"/>
		<path class="st2" d="M931.5,637.4c0-0.3,0-1.4,0-2.6c0-1.2,0.2-2,1.6-2.2c1.2-0.1,2,0.3,2.3,1.6c1.1,5.1,4.8,7,9.6,7.7
			c2.3,0.3,4.3-0.4,6.1-1.7c2-1.5,1.4-5.2-1.3-6.9c-1.6-1-3.3-1.6-5.1-2.5c-2.5-1.2-4.9-2.4-7.3-3.7c-4.6-2.5-6-5.2-5.4-10
			c0.5-4.6,3.3-7.4,7.6-8.8c3.6-1.2,7-1.3,10.3,0.6c1.3,0.8,2.5,1.3,3.6-0.5c0.5-1,1.6-0.8,2.6-0.4c0.9,0.3,0.9,1.1,0.9,1.8
			c0,2.6-0.1,5.2,0.4,7.7c0.3,1.5-0.3,2.8-2,3.1c-2,0.3-1.8-1.2-2-2.3c-1.1-4.4-3.9-6.7-8.3-7.2c-2.5-0.3-5.3,1.3-6.1,3.6
			c-1.1,2.6,0.5,4,2.4,5.3c3.4,2.4,7.4,3.4,11.2,5.3c5.8,2.9,6.8,4.6,6.1,12.3c-0.3,4.2-3.8,6.9-8.1,7.4c-4.4,0.5-8.7,1.1-12.8-1.1
			c-0.8-0.4-1.4,0.2-2,0.6c-2.2,1.2-3.3,0.5-3.7-1.9C931.8,641.1,931.7,639.6,931.5,637.4z"/>
		<path class="st2" d="M1244.6,623.6c0-2.9-0.1-5.8,0-8.7c0.1-1.6-0.5-2-1.8-1.9c-0.6,0-1.3,0.1-1.9,0c-1-0.2-2-0.6-2.4-1.7
			c-0.2-1,0.4-1.8,1.3-2.4c4.1-2.3,7.2-5.4,9-9.7c0.4-1.1,1.5-1.4,2.6-1.1c1.3,0.2,1.2,1.3,1.2,2.3c0,1.8,0.1,3.8-0.1,5.6
			c-0.2,1.9,0.3,2.8,2.5,2.6c2.4-0.1,4.7,0,7,0c1.3,0,1.8,0.4,1.8,1.8s-0.3,2.2-1.8,2.2c-2.4,0-4.7,0-7,0c-1.4,0-2.4,0.3-2.4,2
			c-0.1,6.8-0.4,13.4,0.3,20.2c0.8,6,3.9,8.1,9.6,3.7c1-0.8,1.8-2.2,2.9-1.1c1.1,1.1,0.9,2.6-0.2,4.1c-3.3,4.4-8.2,4.6-12.9,4.1
			c-3.9-0.4-6.3-4.4-7-9.4C1244.5,631.9,1244.5,627.8,1244.6,623.6z"/>
		<path class="st2" d="M983.8,623.3c0.1,4.4,0,8.8,1,13.1c1.1,4.3,4.1,5.4,7.7,2.9c0.6-0.4,1.2-1,1.7-1.4c0.8-0.6,1.4-2,2.4-0.8
			c0.8,1,1.8,2.2,0.5,3.8c-3.3,4.1-10.3,6-15.3,4c-2.2-0.9-3.3-2.7-4.2-4.6c-1.1-2.8-1.5-5.6-1.4-8.6c0.2-4.3-0.1-8.6-0.1-12.9
			c0-2-1.5-3.6-1.5-5.6c0-0.9-0.8-0.5-1.3-0.3c-1.1,0.3-2.4,0.5-2.9-0.9c-0.5-1.3-0.3-2.8,1.1-3.4c4-1.8,6.6-4.9,8.3-8.8
			c0.5-1.3,1.6-1.9,3-1.6c1.6,0.3,1,1.7,1.1,2.8c0,0.8,0,1.5,0,2.3c0,5.5,0,5.5,5.7,5.4c1,0,2,0,3.1,0c1.2,0,2.5-0.3,2.5,1.7
			c0,2-1,2.4-2.7,2.3c-1.8-0.1-3.8,0.1-5.6,0c-2.3-0.1-3.3,0.6-3.2,3C983.9,618,983.8,620.7,983.8,623.3z"/>
		<path class="st2" d="M1116.4,631c0,2.7,0.1,5.4,0,8.2c0,1.5,0.3,2.3,2,2.2c1.1-0.1,2.4-0.1,2.4,1.5c0,1.6-1,1.9-2.5,1.9
			c-4.1,0-8.3,0.2-12.4,0.3c-0.6,0-1.4,0.2-1.7-0.4c-0.3-0.8,0.2-1.3,0.6-1.7c4-3.2,4.2-7.6,4.2-12.3c0-4.7-0.1-9.6,0-14.3
			c0-1.9-0.3-3.1-2.6-2.8c-1.2,0.1-2.5,0.3-2.7-1.5c-0.2-1.9,1.3-1.8,2.4-2c2.3-0.5,4.5-1.1,6.8-1.9c2.4-1,3.3-0.3,3.6,2.2
			c0,0.6,0,1.3,0.1,1.9c0,0.8-0.1,1.6,0.8,1.9c1.1,0.3,1-0.8,1.4-1.4c1.8-3,8.3-5.6,11.7-4.7c1.6,0.4,3.7,3.2,3.4,5.1
			c-0.2,2-1.8,2.9-3.7,3.3c-1.6,0.3-2.7-0.3-3.4-1.7c-1-1.8-2.6-1.8-4.1-1c-3.8,2.2-6.1,5.3-6,9.9c0.1,2.5,0,5.1,0,7.5
			C1116.5,631,1116.4,631,1116.4,631z"/>
		<path class="st2" d="M1200.2,446.7c-0.2-0.8,0.3-1.1,1-1"/>
	</g>
</g>
</svg>
