<?xml version="1.0" encoding="utf-8"?>
<!-- Generator: Adobe Illustrator 27.3.1, SVG Export Plug-In . SVG Version: 6.00 Build 0)  -->
<svg version="1.1" id="Layer_1" xmlns="http://www.w3.org/2000/svg" xmlns:xlink="http://www.w3.org/1999/xlink" x="0px" y="0px"
	viewBox="0 300 1500 400" style="enable-background:new 0 0 1920 1080;" xml:space="preserve">
<style type="text/css">
	.st0{fill:#E3C87A;}
</style>
<g>
	<g>
		<path class="st0" d="M1052.6,485.8c-2.3,4-6,4.8-8.9,6.8c-11.2,7.6-22.8,14.6-34.2,21.9c-10.9,6.9-22,13.6-32.8,20.8
			c-10.8,7.1-22.5,12.8-32.4,21.3c-1.7,1.4-5.1,2.1-5.4,3.8c-0.3,2.4,1,5.3,2.2,7.7c5,10.3,7.7,21.4,11.8,32
			c5.6,14.2,10.7,28.6,16.1,42.9c3.6,9.6,7.2,19.3,10.9,28.9c0.6,1.5,1.2,3.4,0.2,4.2c-1.4,1.3-2.9-0.3-4.2-1.2
			c-12.6-8.5-25.7-15.9-38.1-24.7c-8.1-5.7-17-10.4-25.2-16c-7.4-5.1-15.5-9.1-22.7-14.4c-6.4-4.6-13.5-8-19.7-12.8
			c-2.3-1.7-4.3-1.5-6.9,0.3c-9.8,6.8-19.6,13.5-29.9,19.4c-7.8,4.5-14.7,10.3-22.7,14.4c-3.8,2-7.3,4.5-11.4,6.1
			c-2.1,0.8-4,3.9-6.5,5.4c-9.2,5.7-18.5,11.4-27.6,17.3c-4,2.6-7.9,5.4-12.3,7.8c-0.3-2.9,1.4-4.9,2-7.1
			c2.7-9.8,7.1-18.9,10.3-28.5c4.1-12.1,8.8-23.9,13.7-35.7c1.2-2.9,2-6,2.7-8.9c1.5-6,4.6-11.2,6.3-17.1c1.7-5.9,4.5-11.4,6.2-17.4
			c1-3.5-0.6-5.1-2.6-6.2c-6.3-3.3-11.8-8-17.8-11.8c-9.7-6.2-19.4-12.3-29.1-18.4c-5.3-3.3-10.6-6.7-15.9-10
			c-9-5.6-18.2-11-26.9-17c-6.6-4.6-13.8-8.2-19.9-14c1.4,0,2.8,0,4.3,0c44,0,88,0,132,0.1c3.6,0,5-1,6.5-4.6
			c4.7-11.6,8.7-23.5,13.3-35.2c2.9-7.4,5.6-15,8.2-22.6c4.1-12,8.8-23.8,13.1-35.7c1.8-4.8,3.7-9.7,5.2-14.6
			c0.5-1.6,1.1-3.2,2.6-3.3c1.8-0.1,2,2,2.5,3.3c4.2,12.4,9,24.6,13.4,36.9c3.8,10.4,7.8,20.7,11.6,31.2c4,11.1,8.8,21.9,12.2,33.3
			c1,3.3,3.2,6.3,3.9,9.8c0.4,1.7,1.6,1.3,2.5,1.3c2.2,0.1,4.4,0,6.6,0c42.6,0,85.3,0,127.9,0C1049,485.8,1050.5,485.8,1052.6,485.8
			z M727.9,499.1c-0.1,0.3-0.1,0.6-0.2,0.8c0.4,0.3,0.8,0.6,1.2,0.9c12.3,8,24.7,15.8,37.1,23.8c6.8,4.4,13.5,8.8,20.3,13
			c8,5,16,9.9,23.9,14.9c1.9,1.2,2.8,2.5,1.7,5c-2.2,5-3.5,10.3-5.7,15.4c-5,11.9-9,24.2-13.4,36.4c-0.8,2.2-1.1,4.5-2.1,6.6
			c-3.8,8-6.1,16.6-9.5,24.8c-0.2,0.6-1,1.2-0.3,1.8c0.7,0.6,1.4,0.3,2.2-0.1c5.2-2.6,9.8-6.1,14.7-9.2c13-8.3,26.3-16.2,39.1-24.9
			c6.6-4.5,13.4-8.9,20.3-12.9c4.8-2.8,9.4-8,15.7-2.8c1.6,1.3,3.1,2.6,4.9,3.7c11,7,22.1,13.8,33.1,20.8
			c6.4,4.1,12.4,8.9,19.1,12.5c1.4,0.8,2.9,1.4,4.2,2.4c5.1,3.6,10.4,7,15.7,10.3c0.8,0.5,1.7,1.6,2.8,0.7c1-0.9-0.2-1.7-0.5-2.5
			c-3.6-9.9-7.2-19.8-10.9-29.6c-3.9-10.3-7.8-20.7-11.5-31.1c-2.4-6.8-4.7-13.8-7.4-20.6c-1.5-3.8-0.7-5.5,2.5-7.2
			c4.7-2.6,9.4-5.3,13.9-8.4c15.1-10.3,30.7-19.8,46.1-29.5c5.9-3.7,11.7-7.4,17.4-11.3c0.6-0.4,2.3-0.8,1.9-2.3
			c-0.2-0.8-0.9-1.5-1.9-1.2c-5.2,1.5-10.4-0.3-15.7-0.3c-27.7,0.3-55.4,0.1-83,0.1c-1.9,0-3.8,0.2-4.5-2.3
			c-2.9-9.7-6.9-19.1-10.5-28.6c-3.9-10.4-7.6-20.9-11.5-31.3c-3.1-8.2-6.1-16.5-9.2-24.7c-0.2-0.6,0.4-1.9-0.9-1.6
			c-0.7,0.1-1.5,0.3-1.7,1.4c-1.7,8.5-5.4,16.3-8.2,24.4c-2.7,7.8-5.4,15.6-8.7,23.1c-2.2,4.8-2.6,10.1-5.1,14.7
			c-3.6,6.7-5.3,14.2-8.2,21.2c-1.2,2.9-2.1,3.8-5,3.8c-16.2-0.1-32.3-0.1-48.5-0.1C763.7,499.1,745.8,499.1,727.9,499.1z"/>
	</g>
</g>
</svg>
