<?xml version="1.0" encoding="utf-8"?>
<!-- Generator: Adobe Illustrator 27.3.1, SVG Export Plug-In . SVG Version: 6.00 Build 0)  -->
<svg version="1.1" id="Layer_1" xmlns="http://www.w3.org/2000/svg" xmlns:xlink="http://www.w3.org/1999/xlink" x="0px" y="0px"
	 viewBox="0 250 2000 400" style="enable-background:new 0 0 2000 250;" xml:space="preserve">
<style type="text/css">
	.st0{fill:#e3c87a;}
</style>
<g>
	<g>
		<path class="st0" d="M960.1,414.6c3-1.4,6.1-2.9,9.1-4.3c3.4-2.5,6.9-2.5,10.3,0c3,1.4,6.1,2.9,9.1,4.3c3.6,0.5,5.5,3.6,8.5,5
			c8.7,4.1,17.2,8.8,25.7,13.3c6.5,3.4,12.9,6.8,19.2,10.2c0.8,1.3,2.2,1.3,3.4,1.8c6.5,3.8,12.9,7.7,19.8,11
			c3.8,1.8,3.8,2.7,0.2,4.7c-9.1,4.7-18,9.5-27.1,14.4c-19.6,10.4-39.3,20.9-58.9,31.3c-3.6,2-6.5,1.8-10.3,0
			c-6.3-3.4-12.3-7.6-19.2-9.9c-0.4-1.1-1.4-0.9-2.2-1.1c-4.2-3.2-9.1-5.2-13.8-7.4c-3.8-2-6.7-5-11.3-5.9c-1.6-0.9-3-1.8-4.5-2.7
			c-0.4-0.2-0.6-0.4-1-0.4c-3.2-2.2-6.1-4.5-10.3-5.2c-1.2-2-3.4-2.7-5.7-3.2c-0.4-1.8-2.2-1.8-3.6-2.3c-2-0.9-3.2-2.9-5.5-2.9
			c-3-2.5-6.5-4-10.3-5.4c-3.4-1.4-2.4-2.7,0.2-4c13.2-7,26.7-13.8,39.7-20.9"/>
		<path class="st0" d="M1273.3,487.9c-3.4,2-5.9,1.6-8.7,0.2c-4.3-2.2-8.3-4.9-12.7-7c-12.3-6.7-24.7-13.3-37-20
			c-3.4-1.8-6.1-1.8-9.7,0.2c-14.4,8.1-29.5,15.6-43.9,23.7c-6.9,3.8-12.9,5.9-19.6,0.2c-1.4-1.3-3.4-1.8-5.1-2.7
			c-2.4-0.9-4-3.1-6.7-3.4c-4.5-3.4-9.9-5.4-14.8-8.3c-3.2-2-6.3-4.3-10.3-5.2c-1.6-0.9-3-1.8-4.5-2.7c-0.2-0.4-0.4-0.4-0.8-0.4
			c-1.8-0.9-3.4-2.3-5.3-2.9c-3.4-0.7-1-2-0.6-3.1c0.4-0.2,0.8-0.2,1-0.4c0.8,0.2,1-0.4,1.2-0.9c18-9.4,36.2-18.3,53.4-28.6
			c2-0.4,3.6,0,5.3,0.9c17.6,9.5,35.4,19.1,53.2,28.6c1.8,0.9,2.8,1.3,4.5,0.2c17.6-9.5,35.2-18.7,52.6-28.4c3.4-2,5.7-1.6,8.5,0
			c4,2.3,7.9,4.9,12.5,6.3c1.6,0.7,2.4,2.7,4.5,2.3c2.2,1.4,4.2,3.2,6.9,4c1.6,0.5,2.4,2.5,4.5,2.3c2.8,2.2,5.9,3.6,9.1,5
			c5.3,3.1,10.7,6.1,15.8,9.2c0.6,2.2-1.4,2.3-2.8,3.2"/>
		<path class="st0" d="M627.8,462.9c-2.2-1.1-4.5-2.2-6.7-3.2c-0.6-1.8,0.8-2.5,2.2-3.2c15.8-8.5,31.6-16.9,47.6-25.5
			c1.6-0.9,3.6-1.3,4.5-2.7c2.6-2.2,5.1-1.4,7.5,0c17.4,10.1,36,18.2,52.8,28.8c1.8,1.1,3.4,0.9,5.1-0.2
			c15.6-9.5,32.6-17.1,48.2-26.6c6.5-4,11.1-2.5,16.8,0.7c9.7,5.6,19.4,11.1,29.9,15.6c0.8,1.3,1.8,2,3.4,2c2.6,1.8,5.3,3.6,8.5,4.5
			l0.2,0.2c2.4,1.6,4.9,3.1,7.3,4.7l0,0c0.8,2.7-2.4,2.5-3.4,4c-3.2,0.5-5.5,2.3-7.9,4.1c-1.2,0.4-2.4,0.7-3.6,1.3
			c-12.1,6.5-24.5,12.6-36,19.6c-5.7,3.6-10.1,2.9-14.8-0.4c-3.2-1.4-5.7-4.1-9.3-4.7v0.2c-2-1.4-3.8-3.2-6.5-3.6
			c-9.5-6.5-19.8-11.3-30.1-16.5c-4.3-2.2-7.5-1.6-11.3,0.2c-16.2,8.6-32.6,17.4-48.6,26.3c-3,1.6-5.3,1.8-7.9,0
			c-1.8-1.3-3.8-2.2-5.7-3.1c-6.9-3.1-12.9-7.9-20.4-10.1c-1.8-2-4-3.4-6.9-4.1C638.1,467.8,633.1,465.1,627.8,462.9z"/>
		<path class="st0" d="M1386.8,453.4c3.6-1.3,7.3-1.1,11.1-1.1c24.3,0.2,48.8,0.4,73.2,0.7c1.2,0,2.2-0.2,3.4-0.4
			c1.2,0.4,2.4,0.4,3.4,0c2.2,0.5,4.5,0.4,6.9,0c6.7,0.7,13.6,0.7,20.6,0.4c1.2,0,2.4,0,3.4,0c30.6,0.4,61.5,0.5,92.1,0.9
			c14.8,0.5,29.7,0.7,44.3,0.2c1.2,0,2.4,0,3.4,0c4.2,0.5,8.3,0.7,12.5,0c2,0.5,3.8,0.4,5.7,0c7.5,1.1,15.2,0.7,22.7,0.4
			c2,0,3.8,0.2,5.7,0.2c10.1,0.2,20-0.2,30.1,0.4c22.5,1.3,45.1,0,67.8,0.9c0,0.7,0.4,1.1,1.2,1.4c-2.8,2.5-6.5,2.5-10.1,2.5
			c-60.1,0.5-120.2,0.9-180.1,1.3c-38.2,0.4-76.1,0.4-114.3,1.3c-25.1,0.7-50.4,0.2-75.5,0.5c-1.2,0-2.2,0.2-3.4,0.4
			c-4.9,0.2-9.9,0.4-14.8,0.5c-1.4-0.2-2.6-0.4-4-0.5c-6.1-0.7-7.5-2.3-7.3-8.5C1385.8,455.2,1386.4,454.3,1386.8,453.4z"/>
		<path class="st0" d="M604.6,461.7c-2.8,4.1-6.5,6.5-12.3,5.8c-1.8-0.9-3.6-1.8-5.3-2.7c-0.8-3.1-3.6-5.8-2.4-9.2
			c1.4-4,4.7-5.8,8.9-6.3c4-1.1,6.5,1.4,9.1,3.4C604.8,455.4,605.8,458.3,604.6,461.7z"/>
		<path class="st0" d="M1359.3,462.6c-3.8,3.4-7.7,6.1-13.4,4.1c-0.4-1.1-1.4-0.9-2.2-1.1c-1.4-2.3-3.2-4.5-3.8-7.2
			c1.4-6.5,3.8-8.6,10.5-9.5c3.8,0.5,6.5,2.2,9.1,4.7C1359.9,456.6,1360.7,459.7,1359.3,462.6z"/>
		<path class="st0" d="M176,456.1c10.7,0,21.6-0.2,32.2-0.2c43.7-0.5,87.4-0.9,131.1-1.4c3.6,0,7.1-0.2,10.7-0.4
			c1.8,0,3.4,0.2,5.1,0.2c41.3-0.4,82.8-0.7,124.2-1.3c21.7-0.2,43.5-0.5,65.2-0.9c6.1,0.9,12.3-0.9,18.4,1.1c3,0.9,4.5,2.3,4.3,5
			c-0.2,2.9-1.4,5.4-5.3,5.6c-4,0.2-7.9,0.2-11.9,0.2c-24.7-0.2-49.4,0-73.9-0.5c-77.1-1.8-154.2-1.8-231.3-2.7
			c-27.1-0.4-54.2-0.2-81.3-0.4c-1.8,0-5.1,1.6-5.5-1.4c-0.6-3.6,3.4-2.2,5.3-2.9C167.7,456.3,171.9,456.3,176,456.1z"/>
	</g>
</g>
</svg>
