<?xml version="1.0" encoding="utf-8"?>
<!-- Generator: Adobe Illustrator 27.3.1, SVG Export Plug-In . SVG Version: 6.00 Build 0)  -->
<svg version="1.1" id="Layer_1" xmlns="http://www.w3.org/2000/svg" xmlns:xlink="http://www.w3.org/1999/xlink" x="0px" y="0px"
	 viewBox="0 550 1500 200" style="enable-background:new 0 0 2000 250;" xml:space="preserve">
<style type="text/css">
	.st0{fill:hsl(38, 53%, 60%);}
</style>
<g>
	<g>
		
		<path class="st0" d="M981.6,611.9c1.3,0,2.6,0.1,3.9,0.1c77.6,0,155.1,0,232.7,0c6.2,0,12.3,0.3,18.5,0.5c1.3,0,2.3,0.2,2.6,1.8
			c0.3,1.7-0.8,2.4-2.1,2.6c-1.2,0.2-2.4,0.2-3.6,0.2c-41.2,0-82.3,0-123.5,0c-1.1,0-2.2,0.1-3.3,0.1c-11.1,0-22.2-0.1-33.2-0.1
			c-59.9-0.1-119.7-0.1-179.6-0.2c-5.6,0-11.2-0.1-16.8,1.1c-1.9,0-3.5,0.8-5.2,1.2c-0.9,0.2-1.7,0.4-2.6,0.6c-0.7,0-1.3,0-2,0
			c-0.4,0.2-0.9,0.4-1.3,0.6c-1.4-0.3-2.6,0.7-3.9,0.7c-7,1.5-13.9,3-20.9,4.6c-2,0.4-3.9,0.9-5.9,1.3c-4.8,1.1-9.6,2.1-14.3,3.2
			c-0.7-0.1-1.4-0.3-2,0.3c-0.9,0.1-1.7,0.3-2.6,0.4c-1.8,0.9-4,0-5.8,1.1c-4.2-0.1-8.2,1.6-12.4,1.4c-2.2,0-4.4,0-6.5,0
			c-2.6-0.5-5.2-1-7.8-1.5c-3.7-2-7.4-4-9.7-7.7c-1.2-1.9-2.6-2.4-4.5-1.7c-2.1,0.7-4.6,1.1-6.3,0.2c-3.8-2.1-5.5-0.3-7,2.7
			c-4.7,4.4-9.9,6.8-16.4,4.7c-3.7-1.2-6.7-3.5-8.8-6.8c-0.9-1.3-1.7-2.1-3.4-1.2c-3.1,1.5-6.3,1.3-9.4,0.2c-1-0.4-2.1-1.2-3,0.5
			c-4.3,8.8-12.6,10-21,10.5c-6.4,0.4-12.6-0.9-18.9-1.3c-4.5-1-8.9-2.2-13.4-3c-5.4-0.9-10.5-2.9-15.9-3.4c-7.4-1.9-15-3-22.4-4.7
			c-4.3-1-8.9-1.3-12.9-3.3c-0.9-0.4-2.1-0.2-3.2-0.3c-0.6,0-1.3-0.1-1.9-0.1c-0.2-0.2-0.4-0.3-0.6-0.5c-3.3-0.4-6.6-0.6-9.9-0.2
			c-112.8,1.3-225.6,0.1-338.4,0.5c-1.8,0-3.7-0.1-5.5-0.1c-1.8-0.1-2.2-1.5-2.4-2.8c-0.3-1.6,1.2-1.6,2.2-1.8
			c1.5-0.2,3-0.2,4.5-0.2c98.7,0,197.4,0,296.1-0.1c8.6,0,17.2-0.2,25.8,0.1c5.3,0.2,10.6,0.6,15.9,0.4c4.6,0.3,9.2,0.3,13.7-0.5
			c0.4-0.1,0.9-0.1,1.3-0.2c1.3-0.1,2.8,0.5,3.9-0.7c9.3-2.7,18.9-3.5,28.2-5.9c9.5-2.4,19.2-4.2,28.7-6.4
			c6.1-1.4,12.3-1.5,18.4-2.6c5.3-0.9,10.5-0.6,15.6,0.7c5.1,1.3,9.7,3.4,11.9,8.8c0.5,1.2,1.5,1.7,3.2,1.1
			c3.5-1.3,7.1-1.6,10.4,0.8c0.8,0.6,1.2,0.3,1.7-0.6c3.3-5.2,8-8.1,14.2-9.2c2.7-0.5,4.8,0.8,6.5,1.6c2.5,1.1,5.3,3,6.4,6.1
			c0.1,0.1,0.2,0.2,0.4,0.3c0.4,0.2,0.7,0.5,1.1,0.7c0.8,1.8,1.8,0.8,2.8,0.2c3.1-1.1,6.1-1.1,9.2,0c1.1,1.2,1.8,0.5,2.5-0.5
			c0.8-1.1,1.7-2.3,2.6-3.4c0.3-0.3,0.5-0.6,0.8-0.9c0.6-0.6,1.3-1.2,1.9-1.7c4.4-3.6,9.8-4.3,15.1-4.5c8.1-0.3,16.1,1.1,24,2.5
			c8.4,1.5,16.7,3.4,25,5.3c5.8,1.3,11.7,2.3,17.4,4c0.9,0.3,1.7,0.4,2.5-0.1c1.5,1.1,3.2,1,4.9,1.2c0.5,0.9,1.3,0.4,2,0.4
			c0.8,0.7,1.6,1,2.6,0.7c1.2,0.3,2.4,0.6,3.5,0.9c0.6,1.1,1.4,1.3,2.5,0.8c0.6,0.1,1.3,0.2,1.9,0.2c0.2,0.7,0.8,0.6,1.3,0.6
			c5.4,0,10.8-0.1,16.3-0.1c18.3-0.1,36.6-0.2,54.9-0.3C962.1,612,971.9,612,981.6,611.9z M742.2,603c-3.2-0.1-5.6,1.3-7.8,3.7
			c-6.3,7.2-0.3,18.2,7.4,19.7c5.6,1.1,12.4-1.6,14.8-6.9c2-4.4,1.8-10-3.7-14.2C749.7,602.9,746,602.7,742.2,603z M617.5,613
			c0.9,1.9,2.3,2.5,4,2.8c6.6,1.5,13.4,1.6,19.8,3.9c5.2,1.9,10.8,2.4,16.2,3.7c6.2,1.4,12.6,2.5,18.9,3.6
			c7.9,1.4,15.8,2.3,23.8,1.8c6.3-0.3,12-4.1,12.9-8.9c0.6-3.5,0.7-7.2-0.2-10.9c-1-3.8-3.5-6-6.9-7.4c-6.3-2.5-12.7-2.1-19.4-1.5
			c-10.3,1-20.3,3.3-30.4,5.3C643.4,608,631,612.6,617.5,613z M872.3,614c-4.1-0.3-7.9-1-11.8-1.9c-3.8-0.9-7.7-1.7-11.6-2.6
			c-5.1-1.1-10.3-2.4-15.4-3.3c-6.8-1.2-13.6-2.3-20.3-3.7c-7.4-1.6-15-2.5-22.4-2.4c-13.2,0.1-17.5,8.9-14.5,20.3
			c1.3,5.1,7.9,8.2,15,8.6c13.9,0.8,27.3-2.3,40.6-5.1c6.3-1.3,13-1.6,18.9-4.6c0.5-0.2,1.1-0.1,1.6-0.2c6.3-0.9,12.3-2.7,18.4-4.2
			C871.4,614.6,871.8,614.2,872.3,614z M728.4,614.7c-0.1-3.6-1.6-5.2-5-5.2c-3.7,0-5.9,1.7-5.8,4.3c0.1,3.3,2.5,5.8,5.4,5.8
			C726.2,619.6,728.4,617.6,728.4,614.7z M770.8,614.5c0-3.8-1.3-5.1-4.9-5c-3,0-5.4,2.1-5.3,4.8c0,2.5,2.9,5.4,5.3,5.3
			C769.5,619.4,770.8,618.1,770.8,614.5z"/>
		
	</g>
</g>
</svg>
